HIERARCHY
ROOT hip
{
  OFFSET -0.239867 89.6833 0.190581
  CHANNELS 6 Xposition Yposition Zposition Zrotation Xrotation Yrotation
  JOINT abdomen
  {
    OFFSET 0 7.2397 0
    CHANNELS 6 Xposition Yposition Zposition Zrotation Xrotation Yrotation
    JOINT chest
    {
      OFFSET 0 16.546 0
      CHANNELS 6 Xposition Yposition Zposition Zrotation Xrotation Yrotation
      JOINT neck
      {
        OFFSET 0 34.2149 0
        CHANNELS 6 Xposition Yposition Zposition Zrotation Xrotation Yrotation
        JOINT head
        {
          OFFSET 0 6.2923 0
          CHANNELS 6 Xposition Yposition Zposition Zrotation Xrotation Yrotation
          End Site
          {
            OFFSET 0 21.2161 0
          }
        }
      }
      JOINT lCollar
      {
        OFFSET 4.0639 26.6115 -1.1234
        CHANNELS 6 Xposition Yposition Zposition Zrotation Xrotation Yrotation
        JOINT lShldr
        {
          OFFSET 14.1772 0 0
          CHANNELS 6 Xposition Yposition Zposition Zrotation Xrotation Yrotation
          JOINT lForeArm
          {
            OFFSET 26.1234 0 0
            CHANNELS 6 Xposition Yposition Zposition Zrotation Xrotation Yrotation
            JOINT lHand
            {
              OFFSET 27.7188 0 0
              CHANNELS 6 Xposition Yposition Zposition Zrotation Xrotation Yrotation
              JOINT lThumb1
              {
                OFFSET 2.2979 -0.4685 1.8313
                CHANNELS 6 Xposition Yposition Zposition Zrotation Xrotation Yrotation
                JOINT lThumb2
                {
                  OFFSET 5.2953 0 0
                  CHANNELS 6 Xposition Yposition Zposition Zrotation Xrotation Yrotation
                  JOINT lThumb3
                  {
                    OFFSET 3.0181 0 0
                    CHANNELS 6 Xposition Yposition Zposition Zrotation Xrotation Yrotation
                    End Site
                    {
                      OFFSET 2.6294 0 0
                    }
                  }
                }
              }
              JOINT lIndex1
              {
                OFFSET 9.3793 0.2991 2.5924
                CHANNELS 6 Xposition Yposition Zposition Zrotation Xrotation Yrotation
                JOINT lIndex2
                {
                  OFFSET 4.3461 0 0
                  CHANNELS 6 Xposition Yposition Zposition Zrotation Xrotation Yrotation
                  JOINT lIndex3
                  {
                    OFFSET 2.1666 0 0
                    CHANNELS 6 Xposition Yposition Zposition Zrotation Xrotation Yrotation
                    End Site
                    {
                      OFFSET 2.2048 0 0
                    }
                  }
                }
              }
              JOINT lMid1
              {
                OFFSET 9.4769 0.8376 0.2947
                CHANNELS 6 Xposition Yposition Zposition Zrotation Xrotation Yrotation
                JOINT lMid2
                {
                  OFFSET 4.772 0 0
                  CHANNELS 6 Xposition Yposition Zposition Zrotation Xrotation Yrotation
                  JOINT lMid3
                  {
                    OFFSET 2.8722 0 0
                    CHANNELS 6 Xposition Yposition Zposition Zrotation Xrotation Yrotation
                    End Site
                    {
                      OFFSET 2.0959 0 0
                    }
                  }
                }
              }
              JOINT lRing1
              {
                OFFSET 8.6586 1.0176 -1.7016
                CHANNELS 6 Xposition Yposition Zposition Zrotation Xrotation Yrotation
                JOINT lRing2
                {
                  OFFSET 4.5461 0 0
                  CHANNELS 6 Xposition Yposition Zposition Zrotation Xrotation Yrotation
                  JOINT lRing3
                  {
                    OFFSET 2.506 0 0
                    CHANNELS 6 Xposition Yposition Zposition Zrotation Xrotation Yrotation
                    End Site
                    {
                      OFFSET 2.2023 0 0
                    }
                  }
                }
              }
              JOINT lPinky1
              {
                OFFSET 7.6901 0.6618 -3.9096
                CHANNELS 6 Xposition Yposition Zposition Zrotation Xrotation Yrotation
                JOINT lPinky2
                {
                  OFFSET 3.2119 0 0
                  CHANNELS 6 Xposition Yposition Zposition Zrotation Xrotation Yrotation
                  JOINT lPinky3
                  {
                    OFFSET 1.924 0 0
                    CHANNELS 6 Xposition Yposition Zposition Zrotation Xrotation Yrotation
                    End Site
                    {
                      OFFSET 1.7829 0 0
                    }
                  }
                }
              }
            }
          }
        }
      }
      JOINT rCollar
      {
        OFFSET -4.0677 26.6109 -1.1234
        CHANNELS 6 Xposition Yposition Zposition Zrotation Xrotation Yrotation
        JOINT rShldr
        {
          OFFSET -14.1772 0 0
          CHANNELS 6 Xposition Yposition Zposition Zrotation Xrotation Yrotation
          JOINT rForeArm
          {
            OFFSET -26.1234 0 0
            CHANNELS 6 Xposition Yposition Zposition Zrotation Xrotation Yrotation
            JOINT rHand
            {
              OFFSET -27.7188 0 0
              CHANNELS 6 Xposition Yposition Zposition Zrotation Xrotation Yrotation
              JOINT rThumb1
              {
                OFFSET -2.2979 -0.4684 1.8313
                CHANNELS 6 Xposition Yposition Zposition Zrotation Xrotation Yrotation
                JOINT rThumb2
                {
                  OFFSET -5.2953 0 0
                  CHANNELS 6 Xposition Yposition Zposition Zrotation Xrotation Yrotation
                  JOINT rThumb3
                  {
                    OFFSET -3.0181 0 0
                    CHANNELS 6 Xposition Yposition Zposition Zrotation Xrotation Yrotation
                    End Site
                    {
                      OFFSET -2.6294 0 0
                    }
                  }
                }
              }
              JOINT rIndex1
              {
                OFFSET -9.3793 0.2991 2.5924
                CHANNELS 6 Xposition Yposition Zposition Zrotation Xrotation Yrotation
                JOINT rIndex2
                {
                  OFFSET -4.3461 0 0
                  CHANNELS 6 Xposition Yposition Zposition Zrotation Xrotation Yrotation
                  JOINT rIndex3
                  {
                    OFFSET -2.1666 0 0
                    CHANNELS 6 Xposition Yposition Zposition Zrotation Xrotation Yrotation
                    End Site
                    {
                      OFFSET -2.2048 0 0
                    }
                  }
                }
              }
              JOINT rMid1
              {
                OFFSET -9.4769 0.8376 0.2947
                CHANNELS 6 Xposition Yposition Zposition Zrotation Xrotation Yrotation
                JOINT rMid2
                {
                  OFFSET -4.772 0 0
                  CHANNELS 6 Xposition Yposition Zposition Zrotation Xrotation Yrotation
                  JOINT rMid3
                  {
                    OFFSET -2.8722 0 0
                    CHANNELS 6 Xposition Yposition Zposition Zrotation Xrotation Yrotation
                    End Site
                    {
                      OFFSET -2.0959 0 0
                    }
                  }
                }
              }
              JOINT rRing1
              {
                OFFSET -8.6586 1.0176 -1.7016
                CHANNELS 6 Xposition Yposition Zposition Zrotation Xrotation Yrotation
                JOINT rRing2
                {
                  OFFSET -4.5461 0 0
                  CHANNELS 6 Xposition Yposition Zposition Zrotation Xrotation Yrotation
                  JOINT rRing3
                  {
                    OFFSET -2.506 0 0
                    CHANNELS 6 Xposition Yposition Zposition Zrotation Xrotation Yrotation
                    End Site
                    {
                      OFFSET -2.2023 0 0
                    }
                  }
                }
              }
              JOINT rPinky1
              {
                OFFSET -7.6901 0.6618 -3.9096
                CHANNELS 6 Xposition Yposition Zposition Zrotation Xrotation Yrotation
                JOINT rPinky2
                {
                  OFFSET -3.2119 0 0
                  CHANNELS 6 Xposition Yposition Zposition Zrotation Xrotation Yrotation
                  JOINT rPinky3
                  {
                    OFFSET -1.924 0 0
                    CHANNELS 6 Xposition Yposition Zposition Zrotation Xrotation Yrotation
                    End Site
                    {
                      OFFSET -1.7829 0 0
                    }
                  }
                }
              }
            }
          }
        }
      }
    }
  }
  JOINT lThigh
  {
    OFFSET 8.7379 -0.0029 0.0005
    CHANNELS 6 Xposition Yposition Zposition Zrotation Xrotation Yrotation
    JOINT lShin
    {
      OFFSET 0 -46.6676 0
      CHANNELS 6 Xposition Yposition Zposition Zrotation Xrotation Yrotation
      JOINT lFoot
      {
        OFFSET 0 -40.1476 0
        CHANNELS 6 Xposition Yposition Zposition Zrotation Xrotation Yrotation
        JOINT lToes
        {
          OFFSET 0 -8.8846 14.2294
          CHANNELS 6 Xposition Yposition Zposition Zrotation Xrotation Yrotation
          End Site
          {
            OFFSET 0 0 6.296
          }
        }
      }
    }
  }
  JOINT rThigh
  {
    OFFSET -8.7379 0.0029 -0.0005
    CHANNELS 6 Xposition Yposition Zposition Zrotation Xrotation Yrotation
    JOINT rShin
    {
      OFFSET 0 -46.6676 0
      CHANNELS 6 Xposition Yposition Zposition Zrotation Xrotation Yrotation
      JOINT rFoot
      {
        OFFSET 0 -40.1476 0
        CHANNELS 6 Xposition Yposition Zposition Zrotation Xrotation Yrotation
        JOINT rToes
        {
          OFFSET 0 -8.8846 14.2294
          CHANNELS 6 Xposition Yposition Zposition Zrotation Xrotation Yrotation
          End Site
          {
            OFFSET 0 0 6.296
          }
        }
      }
    }
  }
}
MOTION
Frames:	4
Frame Time:	0.0333333
9.27444 94.632 20.7514 1.55599 13.0975 -62.2612 -3.55271e-15 7.2397 3.55271e-15 -4.25669 7.75286 6.75448 -3.55271e-15 16.546 0 -10.9076 16.713 14.7706 3.55271e-15 34.2149 1.42109e-14 -5.00951 27.2449 -5.14252 -7.10543e-15 6.2923 -1.42109e-14 11.6695 15.6099 -1.22835 4.0639 26.6115 -1.1234 0.0759792 -4.47198 -0.36099 14.1772 0 0 -65.9347 1.27855 -1.50455 26.1234 0 -1.42109e-14 2.2106 10.6041 -42.181 27.7188 7.10543e-15 -1.77636e-15 14.6886 10.933 -2.78328 2.2979 -0.4685 1.8313 30.4398 74.3269 -57.6863 5.2953 3.55271e-15 0 -1.92382 2.2479 0.000969117 3.0181 -3.55271e-15 -7.10543e-15 12.4883 -0.000103413 -1.635e-06 9.3793 0.2991 2.5924 -50.1512 1.75278 8.89513 4.3461 0 0 -67.5836 -1.52813 0.313721 2.1666 2.84217e-14 -1.77636e-15 -2.16841 -1.26682e-05 -6.05687e-06 9.4769 0.8376 0.2947 -49.3274 -6.56875 2.52635 4.772 0 0 -72.7607 -2.38579 2.53465 2.8722 0 3.55271e-15 3.95742 0.071102 0.399408 8.6586 1.0176 -1.7016 -52.8819 -4.13462 0.445993 4.5461 -7.10543e-15 1.77636e-15 -84.9171 2.23305 -1.53597 2.506 0 7.10543e-15 6.7605 -1.78883e-06 -0.00010324 7.6901 0.6618 -3.9096 -60.6112 -17.8371 -3.97471 3.2119 0 -3.55271e-15 -88.9584 -7.02838 11.7988 1.924 -1.42109e-14 3.55271e-15 4.4131 1.66394e-06 2.87018e-07 -4.0677 26.6109 -1.1234 3.06475 -2.92991 5.22854 -14.1772 0 -7.10543e-15 74.0402 -12.9228 -18.4039 -26.1234 0 0 5.64651 -3.94557 40.7203 -27.7188 0 -4.44089e-16 2.96195 5.4848 -7.97634 -2.2979 -0.4684 1.8313 -37.3108 60.5987 62.8335 -5.2953 7.10543e-15 -1.77636e-15 25.1644 -0.903547 -6.58624 -3.0181 0 0 -12.4883 -0.000107576 0.000102404 -9.3793 0.2991 2.5924 19.2137 -2.50349 0.831296 -4.3461 3.55271e-15 0 34.7887 -1.06495 -2.53169 -2.1666 0 0 2.1682 4.74618e-06 -4.0179e-06 -9.4769 0.8376 0.2947 28.2647 -5.9273 1.51212 -4.772 0 3.55271e-15 53.1286 -2.23069 -3.17005 -2.8722 7.10543e-15 0 -3.9575 0.0709972 -0.399402 -8.6586 1.0176 -1.7016 37.947 0.289483 0.949754 -4.5461 0 0 57.4832 2.10039 2.75878 -2.506 1.42109e-14 -3.55271e-15 -6.7605 2.89716e-06 1.92518e-06 -7.6901 0.6618 -3.9096 37.2746 -12.373 4.17614 -3.2119 0 0 63.2814 -0.411079 -5.60755 -1.924 0 0 -4.413 1.5028e-06 -3.34291e-06 8.7379 -0.0029 0.0005 14.5691 -26.1779 20.5323 0 -46.6676 0 -0.210477 36.713 8.12281 0 -40.1476 5.32907e-15 1.35304 -18.2 8.17481 0 -8.8846 14.2294 0.0001 0 -0 -8.7379 0.0029 -0.0005 -13.5002 -14.6169 -20.7885 -3.55271e-15 -46.6676 3.55271e-15 -5.72441 40.3361 -8.6433 3.55271e-15 -40.1476 0 16.5259 0.918789 -8.1013 -3.55271e-15 -8.8846 14.2294 0 7.95139e-16 -0 
9.08473 94.5944 20.0842 1.77458 12.9364 -62.1483 5.32907e-15 7.2397 3.55271e-15 -4.29257 7.72616 6.83512 3.55271e-15 16.546 -7.10543e-15 -11.0028 16.6476 14.9298 -1.06581e-14 34.2149 -2.13163e-14 -4.70297 27.3561 -5.38958 0 6.2923 0 11.7609 15.4414 -1.6045 4.0639 26.6115 -1.1234 0.0610556 -4.44515 -0.235065 14.1772 0 0 -66.459 1.35285 -1.8742 26.1234 7.10543e-15 0 2.14309 10.5575 -41.0268 27.7188 0 5.32907e-15 15.1839 10.8775 -3.77438 2.2979 -0.4685 1.8313 30.568 74.3587 -58.309 5.2953 0 7.10543e-15 -1.85278 2.29466 0.0220128 3.0181 0 0 12.4883 -0.000103413 -1.635e-06 9.3793 0.2991 2.5924 -51.9569 1.74919 8.90316 4.3461 0 0 -69.3546 -1.53942 0.224432 2.1666 -1.42109e-14 0 -2.16841 -1.26682e-05 -6.05687e-06 9.4769 0.8376 0.2947 -51.1314 -6.76063 2.30948 4.772 7.10543e-15 0 -74.5011 -2.46448 2.53278 2.8722 0 0 3.95742 0.071102 0.399408 8.6586 1.0176 -1.7016 -54.6235 -4.46401 0.137253 4.5461 0 3.55271e-15 -86.6809 2.28148 -1.51157 2.506 -1.42109e-14 -1.77636e-15 6.7605 -1.78883e-06 -0.00010324 7.6901 0.6618 -3.9096 -62.4414 -18.195 -4.4456 3.2119 0 0 -90.6558 -7.38306 11.9528 1.924 0 3.55271e-15 4.4131 1.66394e-06 2.87018e-07 -4.0677 26.6109 -1.1234 3.06598 -2.93619 5.29073 -14.1772 0 0 74.1079 -13.0702 -18.75 -26.1234 -7.10543e-15 0 5.55373 -3.66895 41.0506 -27.7188 0 3.55271e-15 4.02514 5.51205 -7.89744 -2.2979 -0.4684 1.8313 -37.3108 60.5987 62.8335 -5.2953 3.55271e-15 0 25.5337 -1.05319 -6.5563 -3.0181 1.77636e-15 0 -12.4883 -0.000107576 0.000102404 -9.3793 0.2991 2.5924 19.4728 -2.49673 0.783741 -4.3461 3.55271e-15 3.55271e-15 35.0004 -1.07398 -2.52701 -2.1666 3.55271e-15 -3.55271e-15 2.1682 4.74618e-06 -4.0179e-06 -9.4769 0.8376 0.2947 28.5807 -5.92936 1.52154 -4.772 -1.77636e-15 0 53.4293 -2.25074 -3.17491 -2.8722 1.42109e-14 3.55271e-15 -3.9575 0.0709972 -0.399402 -8.6586 1.0176 -1.7016 38.2419 0.278951 1.0027 -4.5461 0 0 57.7256 2.11377 2.76219 -2.506 0 3.55271e-15 -6.7605 2.89716e-06 1.92518e-06 -7.6901 0.6618 -3.9096 37.4964 -12.3991 4.20524 -3.2119 2.66454e-15 3.55271e-15 63.47 -0.425926 -5.63864 -1.924 1.42109e-14 3.55271e-15 -4.413 1.5028e-06 -3.34291e-06 8.7379 -0.0029 0.0005 14.5649 -26.5303 20.295 3.55271e-15 -46.6676 7.10543e-15 0.211595 36.7732 8.05273 0 -40.1476 -3.55271e-15 0.731004 -17.8954 8.05571 3.55271e-15 -8.8846 14.2294 0.0001 0 -3.18055e-15 -8.7379 0.0029 -0.0005 -14.0538 -14.4529 -21.0338 -3.55271e-15 -46.6676 -3.55271e-15 -5.68571 37.9857 -7.07813 0 -40.1476 1.77636e-15 17.1922 1.44293 -8.27757 3.55271e-15 -8.8846 14.2294 2.42765e-31 -4.37326e-15 3.18055e-15 
8.82102 94.5706 19.3352 2.02714 12.7236 -61.95 0 7.2397 0 -4.34715 7.68779 6.89579 -3.55271e-15 16.546 -3.55271e-15 -11.1312 16.5582 15.0496 3.55271e-15 34.2149 7.10543e-15 -4.36794 27.5216 -5.62316 0 6.2923 0 11.864 15.2752 -1.95561 4.0639 26.6115 -1.1234 -0.120749 -4.40567 -0.152939 14.1772 0 1.42109e-14 -66.7576 1.40041 -2.15087 26.1234 -7.10543e-15 0 2.11426 10.6776 -39.8614 27.7188 7.10543e-15 5.32907e-15 15.7409 10.9539 -4.68562 2.2979 -0.4685 1.8313 30.4178 74.3448 -58.5783 5.2953 3.55271e-15 0 -1.77099 2.33419 0.0368664 3.0181 3.55271e-15 -7.10543e-15 12.4883 -0.000103413 -1.635e-06 9.3793 0.2991 2.5924 -53.7949 1.74348 8.91049 4.3461 7.10543e-15 3.55271e-15 -71.2036 -1.54756 0.130868 2.1666 -1.42109e-14 1.77636e-15 -2.16841 -1.26682e-05 -6.05687e-06 9.4769 0.8376 0.2947 -52.9641 -6.93871 2.05914 4.772 -7.10543e-15 3.55271e-15 -76.3499 -2.54782 2.52748 2.8722 2.84217e-14 3.55271e-15 3.95742 0.071102 0.399408 8.6586 1.0176 -1.7016 -56.3838 -4.79643 -0.175594 4.5461 0 -1.77636e-15 -88.529 2.33077 -1.48442 2.506 0 1.77636e-15 6.7605 -1.78883e-06 -0.00010324 7.6901 0.6618 -3.9096 -64.3359 -18.5433 -4.94085 3.2119 -7.10543e-15 0 -92.4164 -7.75681 12.0979 1.924 0 1.77636e-15 4.4131 1.66394e-06 2.87018e-07 -4.0677 26.6109 -1.1234 3.0228 -2.94251 5.32943 -14.1772 2.84217e-14 0 74.3895 -13.2654 -19.0364 -26.1234 7.10543e-15 0 5.51486 -3.60457 41.3597 -27.7188 0 8.88178e-16 5.04986 5.59593 -7.78213 -2.2979 -0.4684 1.8313 -37.3108 60.5987 62.8335 -5.2953 3.55271e-15 -8.88178e-16 25.5697 -0.955399 -6.56636 -3.0181 3.55271e-15 0 -12.4883 -0.000107576 0.000102404 -9.3793 0.2991 2.5924 19.8647 -2.49937 0.796003 -4.3461 0 0 35.3513 -1.08954 -2.51944 -2.1666 7.10543e-15 0 2.1682 4.74618e-06 -4.0179e-06 -9.4769 0.8376 0.2947 29.0513 -5.94203 1.55436 -4.772 -8.88178e-16 -3.55271e-15 53.8694 -2.27993 -3.18061 -2.8722 0 3.55271e-15 -3.9575 0.0709972 -0.399402 -8.6586 1.0176 -1.7016 38.695 0.246454 1.048 -4.5461 1.77636e-15 -3.55271e-15 58.1234 2.13483 2.7674 -2.506 0 0 -6.7605 2.89716e-06 1.92518e-06 -7.6901 0.6618 -3.9096 37.8734 -12.4532 4.22774 -3.2119 0 0 63.8684 -0.461765 -5.70117 -1.924 -1.42109e-14 0 -4.413 1.5028e-06 -3.34291e-06 8.7379 -0.0029 0.0005 14.691 -26.787 20.3003 3.55271e-15 -46.6676 0 0.405526 36.7113 7.75769 0 -40.1476 3.55271e-15 0.258551 -17.5301 7.96963 -3.55271e-15 -8.8846 14.2294 0.0001 -9.93923e-17 -9.54166e-15 -8.7379 0.0029 -0.0005 -14.5537 -14.4036 -21.2469 3.55271e-15 -46.6676 -3.55271e-15 -5.54571 35.5746 -5.90658 0 -40.1476 8.88178e-16 18.328 2.64288 -8.65275 -3.55271e-15 -8.8846 14.2294 -1.59028e-15 1.59028e-15 -3.18055e-15 
8.52118 94.5441 18.5428 2.29366 12.4877 -61.7017 -1.77636e-15 7.2397 -3.55271e-15 -4.40348 7.64541 6.95023 3.55271e-15 16.546 -3.55271e-15 -11.2615 16.4613 15.1557 5.32907e-15 34.2149 -1.42109e-14 -4.01417 27.7174 -5.85805 0 6.2923 -1.42109e-14 11.9688 15.1007 -2.30531 4.0639 26.6115 -1.1234 -0.36892 -4.36083 -0.0867551 14.1772 0 0 -66.9872 1.43516 -2.39843 26.1234 0 -1.42109e-14 2.09523 10.8565 -38.6604 27.7188 0 -5.32907e-15 16.316 11.0808 -5.58876 2.2979 -0.4685 1.8313 30.1408 74.3216 -58.6918 5.2953 3.55271e-15 0 -1.68362 2.37269 0.0502282 3.0181 3.55271e-15 0 12.4883 -0.000103413 -1.635e-06 9.3793 0.2991 2.5924 -55.6567 1.73618 8.91906 4.3461 1.42109e-14 -3.55271e-15 -73.09 -1.55403 0.0352456 2.1666 -1.42109e-14 0 -2.16841 -1.26682e-05 -6.05687e-06 9.4769 0.8376 0.2947 -54.8178 -7.11149 1.79508 4.772 0 0 -78.2464 -2.63319 2.52044 2.8722 0 0 3.95742 0.071102 0.399408 8.6586 1.0176 -1.7016 -58.1627 -5.12982 -0.494283 4.5461 7.10543e-15 -1.77636e-15 -90.4156 2.3804 -1.45594 2.506 -1.42109e-14 0 6.7605 -1.78883e-06 -0.00010324 7.6901 0.6618 -3.9096 -66.2674 -18.8868 -5.45041 3.2119 1.06581e-14 0 -94.2078 -8.13989 12.2388 1.924 -1.42109e-14 0 4.4131 1.66394e-06 2.87018e-07 -4.0677 26.6109 -1.1234 2.95503 -2.94937 5.3614 -14.1772 0 7.10543e-15 74.7432 -13.4802 -19.3199 -26.1234 -7.10543e-15 -1.42109e-14 5.48673 -3.59651 41.6521 -27.7188 -7.10543e-15 -8.88178e-16 6.06274 5.69864 -7.63621 -2.2979 -0.4684 1.8313 -37.3108 60.5987 62.8335 -5.2953 0 8.88178e-16 25.4971 -0.783908 -6.58835 -3.0181 0 1.77636e-15 -12.4883 -0.000107576 0.000102404 -9.3793 0.2991 2.5924 20.3281 -2.50434 0.823124 -4.3461 0 -3.55271e-15 35.7825 -1.10881 -2.51024 -2.1666 0 0 2.1682 4.74618e-06 -4.0179e-06 -9.4769 0.8376 0.2947 29.6089 -5.95913 1.59705 -4.772 -1.77636e-15 0 54.3887 -2.31407 -3.18718 -2.8722 -1.42109e-14 3.55271e-15 -3.9575 0.0709972 -0.399402 -8.6586 1.0176 -1.7016 39.2339 0.204038 1.09336 -4.5461 0 0 58.6071 2.16019 2.7737 -2.506 0 1.77636e-15 -6.7605 2.89716e-06 1.92518e-06 -7.6901 0.6618 -3.9096 38.3368 -12.522 4.25105 -3.2119 2.66454e-15 3.55271e-15 64.3668 -0.507682 -5.77849 -1.924 0 3.55271e-15 -4.413 1.5028e-06 -3.34291e-06 8.7379 -0.0029 0.0005 14.8631 -27.0221 20.3864 0 -46.6676 -7.10543e-15 0.531562 36.6248 7.3654 3.55271e-15 -40.1476 5.32907e-15 -0.174718 -17.148 7.89499 0 -8.8846 14.2294 0.0001 9.93923e-17 3.18055e-15 -8.7379 0.0029 -0.0005 -15.0288 -14.4048 -21.4612 3.55271e-15 -46.6676 0 -5.31424 33.1433 -4.87083 -3.55271e-15 -40.1476 -1.77636e-15 19.7076 4.10419 -9.11629 -7.10543e-15 -8.8846 14.2294 -7.95139e-16 -2.18663e-15 1.59028e-15 
